<?xml version="1.0" standalone="no"?>
<!DOCTYPE svg PUBLIC "-//W3C//DTD SVG 20010904//EN"
 "http://www.w3.org/TR/2001/REC-SVG-20010904/DTD/svg10.dtd">
<svg version="1.0" xmlns="http://www.w3.org/2000/svg"
 width="80px" height="81px" viewBox="0 0 511.000000 445.000000"
 preserveAspectRatio="xMidYMid meet">

<g transform="translate(0.000000,445.000000) scale(0.100000,-0.100000)"
fill="#000000" stroke="none">
<path d="M774 4125 c-53 -53 -43 12 -149 -1005 -30 -294 -67 -638 -80 -765
-40 -371 -31 -548 40 -745 225 -624 963 -1153 1790 -1281 133 -21 399 -16 548
10 399 69 796 242 1120 488 134 102 335 304 419 423 139 196 224 401 253 615
20 144 27 57 -86 1140 -49 473 -92 885 -95 915 -9 103 -34 178 -66 205 -62 53
-103 30 -235 -129 -51 -61 -119 -142 -151 -181 -451 -531 -580 -680 -590 -677
-342 73 -490 92 -787 99 -338 7 -592 -17 -883 -85 l-83 -20 -102 121 c-56 66
-118 139 -137 162 -19 23 -129 154 -245 290 -115 136 -239 282 -274 323 -77
92 -81 96 -108 110 -35 19 -72 14 -99 -13z m3218 -1854 c138 -47 136 -44 105
-119 -79 -196 -231 -357 -424 -452 -91 -44 -119 -50 -108 -22 66 156 80 390
31 528 -26 76 -27 92 -9 98 10 2 83 4 163 2 134 -2 152 -5 242 -35z m-2359 12
c33 -5 38 -9 33 -27 -49 -196 -48 -187 -43 -326 4 -111 9 -149 31 -214 15 -43
24 -81 22 -84 -3 -3 -52 18 -110 47 -201 100 -345 256 -425 458 l-21 53 49 25
c44 22 161 57 231 68 41 7 192 7 233 0z m1767 -45 c-1 -7 -7 -40 -15 -73 -19
-79 -19 -271 0 -355 8 -36 25 -91 36 -123 12 -32 19 -60 16 -63 -3 -3 -50 -8
-104 -11 -122 -7 -243 13 -359 58 -96 38 -93 29 -39 146 81 173 204 301 380
395 77 41 85 44 85 26z m-1384 -103 c127 -85 222 -196 289 -338 54 -113 53
-116 -33 -149 -40 -16 -104 -35 -143 -43 -74 -16 -295 -20 -316 -7 -10 6 -6
28 17 93 51 146 60 317 24 460 -8 31 -14 62 -14 68 0 16 86 -25 176 -84z"/>
</g>
</svg>
